HIERARCHY
ROOT Pelvis
{
	OFFSET 0.009387 0.966437 0.013201
	CHANNELS 6 Xposition Yposition Zposition Zrotation Yrotation Xrotation 
	JOINT L_Hip
	{
		OFFSET 0.054808 -0.085106 -0.008426
		CHANNELS 3 Zrotation Yrotation Xrotation
		JOINT L_Knee
		{
			OFFSET 0.041533 -0.391135 0.011104
			CHANNELS 3 Zrotation Yrotation Xrotation
			JOINT L_Ankle
			{
				OFFSET -0.041555 -0.425024 -0.064175
				CHANNELS 3 Zrotation Yrotation Xrotation
				End Site #name: L_Foot
				{
					OFFSET 0.055957 -0.054958 0.116754
				}
			}
		}
	}
	JOINT R_Hip
	{
		OFFSET -0.061474 -0.089692 -0.010855
		CHANNELS 3 Zrotation Yrotation Xrotation
		JOINT R_Knee
		{
			OFFSET -0.044890 -0.388133 -0.012717
			CHANNELS 3 Zrotation Yrotation Xrotation
			JOINT R_Ankle
			{
				OFFSET 0.029429 -0.421130 -0.050530
				CHANNELS 3 Zrotation Yrotation Xrotation
				End Site #name: R_Foot
				{
					OFFSET -0.081404 -0.043500 0.120129
				}
			}
		}
	}
	JOINT Spine1
	{
		OFFSET -0.003814 0.124981 -0.041301
		CHANNELS 3 Zrotation Yrotation Xrotation
		JOINT Spine2
		{
			OFFSET -0.000242 0.141836 0.022442
			CHANNELS 3 Zrotation Yrotation Xrotation
			JOINT Spine3
			{
				OFFSET 0.002328 0.056189 0.009584
				CHANNELS 3 Zrotation Yrotation Xrotation
				JOINT Neck
				{
					OFFSET 0.014344 0.217725 -0.014591
					CHANNELS 3 Zrotation Yrotation Xrotation
					End Site #name: Head
					{
						OFFSET -0.005523 0.079232 0.064374
					}
				}
				JOINT L_Collar
				{
					OFFSET 0.079809 0.110220 -0.017311
					CHANNELS 3 Zrotation Yrotation Xrotation
					JOINT L_Shoulder
					{
						OFFSET 0.129840 -0.008734 -0.007534
						CHANNELS 3 Zrotation Yrotation Xrotation
						JOINT L_Elbow
						{
							OFFSET 0.013911 -0.253873 -0.043977
							CHANNELS 3 Zrotation Yrotation Xrotation
							End Site #name: L_Wrist
							{
								OFFSET 0.054096 -0.239111 0.101971
							}
						}
					}
				}
				JOINT R_Collar
				{
					OFFSET -0.073303 0.121169 -0.007940
					CHANNELS 3 Zrotation Yrotation Xrotation
					JOINT R_Shoulder
					{
						OFFSET -0.121591 -0.009662 -0.011365
						CHANNELS 3 Zrotation Yrotation Xrotation
						JOINT R_Elbow
						{
							OFFSET -0.010243 -0.259733 -0.042586
							CHANNELS 3 Zrotation Yrotation Xrotation
							End Site #name: R_Wrist
							{
								OFFSET -0.057088 -0.235344 0.118136
							}
						}
					}
				}
			}
		}
	}
}
MOTION
Frames: 7
Frame Time: 0.041667
-0.009747 0.953276 0.701471 0.934507 -0.635899 -1.217112 -4.703172 -1.420995 -8.664016 0.616863 -1.192130 10.459304 0.951222 -3.927011 -5.521243 -4.658165 0.733763 -7.804994 13.941454 -4.873612 52.335793 -2.554345 -15.979277 6.629423 -2.168497 0.409052 3.108288 -4.798700 0.821219 2.166162 1.010208 0.677975 0.427116 -1.767033 1.911909 4.802643 0.760304 -0.800534 -0.015060 3.583867 -0.651607 -1.408063 2.649149 0.381507 -3.699591 0.002729 6.164400 -0.492896 1.491969 -0.186290 -1.108390 1.381987 2.904366 -8.224728 
-0.007889 0.955292 0.738127 0.357734 -0.367953 -2.014634 -4.512115 -0.833296 -4.810091 0.743257 -1.126981 9.567775 1.643610 -4.536114 -7.431516 -4.042913 1.178177 -13.070362 12.653051 -4.060233 52.719567 -4.132397 -14.962103 3.154546 -1.453827 0.281714 3.494644 -4.039123 0.676189 2.334084 0.524566 0.320142 0.441057 -1.098550 1.366660 5.314254 0.885034 -2.445049 -0.132270 3.808901 -0.704396 -2.229047 1.945080 -0.126026 -4.556241 -0.065305 4.601899 -0.363776 1.382408 -0.205551 -0.409618 1.180550 3.005518 -9.025167 
-0.006636 0.955729 0.771377 -0.156524 -0.203832 -2.753119 -4.293244 -0.289180 -1.155457 0.827152 -1.060297 8.768578 1.933500 -5.430756 -8.726771 -3.288991 1.619316 -17.405720 10.806520 -2.756450 50.010992 -5.205853 -13.802482 0.444610 -0.961704 0.192524 3.892852 -3.394595 0.554407 2.194929 0.402939 0.035259 0.604055 -0.877216 1.177265 5.408836 0.953128 -3.837675 -0.235475 3.973359 -0.741164 -2.845056 1.242146 -0.641534 -5.381464 0.006082 2.779330 -0.221818 1.305368 -0.246641 0.634817 0.849570 2.872490 -9.277885 
-0.004120 0.954516 0.810523 -0.536363 -0.066090 -3.347200 -4.206583 0.206333 2.274686 1.001825 -1.028198 8.108135 2.458165 -5.835968 -10.101697 -2.317815 2.095583 -21.109785 8.617792 -1.356845 45.148968 -5.362165 -11.986591 -1.130019 -0.413979 0.085602 3.697285 -3.183036 0.510966 2.444698 0.526889 -0.261765 0.898359 -0.374062 0.701157 5.091125 1.076616 -5.075161 -0.327925 3.620507 -0.704304 -3.531933 0.533775 -1.012878 -5.505493 -0.182849 1.413414 -0.097608 1.386715 -0.312398 1.632449 0.570084 2.656822 -9.116632 
-0.002448 0.952905 0.844938 -0.747817 0.053287 -3.770948 -4.311519 0.657989 5.410131 1.280592 -1.039405 7.647790 2.968647 -6.008062 -11.270569 -1.494857 2.491902 -23.672123 6.746659 -0.391769 38.145263 -4.535108 -9.542501 -1.409639 -0.127290 0.030574 3.650842 -3.141135 0.503674 2.386994 0.959164 -0.517921 1.196111 -0.118298 0.465370 4.983626 1.118636 -6.075969 -0.405090 3.107274 -0.647093 -4.107011 0.284636 -1.162740 -5.628671 -0.151818 -0.137516 0.025300 1.245956 -0.339341 2.655191 0.351552 2.320104 -8.359559 
-0.001525 0.950128 0.884119 -0.767992 0.191859 -4.016401 -4.380540 1.058142 8.159196 1.169072 -1.019594 7.691516 3.916025 -5.695164 -12.994553 -0.550625 2.833760 -25.193334 4.805288 0.272094 29.460664 -3.062807 -7.339139 -0.445797 -0.222998 0.047108 3.181952 -2.928078 0.460309 2.550668 1.336253 -0.761829 1.552419 0.166485 0.169759 4.389503 1.331285 -6.907939 -0.470382 2.284831 -0.549796 -4.540704 -0.231898 -1.422379 -5.659644 -0.130401 -1.560950 0.137846 1.144899 -0.367275 3.590151 0.199168 1.994719 -7.474472 
-0.000797 0.945728 0.921705 -0.569820 0.395872 -3.949137 -4.523073 1.420518 10.588088 1.015448 -1.006640 7.883722 4.468604 -5.767681 -14.196882 0.051438 2.987173 -25.507915 3.299649 0.409172 19.236485 -1.419239 -5.554398 1.024911 -0.550247 0.105908 2.832422 -2.633181 0.403528 2.537743 1.692125 -0.952133 1.769240 0.112902 0.196359 4.107208 1.356769 -7.384216 -0.508561 1.611653 -0.476410 -4.935525 -0.520315 -1.560877 -5.648658 -0.034799 -3.100681 0.250015 1.337273 -0.460511 4.653442 -0.448172 1.402082 -6.644597 
